<svg width="347" height="49" viewBox="0 0 347 49" fill="none" xmlns="http://www.w3.org/2000/svg">
<path d="M26.34 32.3C27.34 32.7 27.84 33.42 27.84 34.46C27.84 35.94 26.42 36.68 23.58 36.68C23.18 36.68 22.74 36.66 22.26 36.62C21.78 36.62 21.36 36.62 21 36.62C20.48 36.62 20.02 36.62 19.62 36.62C19.26 36.62 18.96 36.64 18.72 36.68C18.64 36.64 18.12 36.58 17.16 36.5C16.2 36.46 14.8 36.36 12.96 36.2C12 36.28 11.24 36.34 10.68 36.38C10.16 36.42 9.82 36.44 9.66 36.44C8.18 36.44 7.12 36.2 6.48 35.72C6.28 34.32 6.12 33 6 31.76C5.88 30.48 5.82 29.26 5.82 28.1C5.82 26.06 5.9 24.24 6.06 22.64C6.26 21.04 6.36 19.72 6.36 18.68C6.36 17.32 6.28 16.4 6.12 15.92L6.42 9.62C6.74 6.46 7.2 4.32 7.8 3.2C7.96 3.04 8.46 2.86 9.3 2.66C10.18 2.46 11.1 2.28 12.06 2.12C13.02 1.92 13.86 1.76 14.58 1.64C15.3 1.48 15.58 1.4 15.42 1.4C15.66 1.32 16.18 1.24 16.98 1.16C17.78 1.08 18.62 0.999998 19.5 0.919999C20.38 0.839998 21.16 0.779997 21.84 0.739998C22.56 0.699998 22.9 0.679998 22.86 0.679998H23.04C23.36 0.679998 23.66 0.899998 23.94 1.34C24.26 1.74 24.42 2.22 24.42 2.78C24.42 3.14 24.4 3.46 24.36 3.74C24.32 3.98 24.18 4.2 23.94 4.4C23.7 4.6 23.3 4.76 22.74 4.88C22.18 4.96 21.38 5.02 20.34 5.06C18.54 5.14 17.32 5.28 16.68 5.48H16.32C15.08 5.48 13.58 5.76 11.82 6.32C11.62 6.52 11.44 6.9 11.28 7.46C11.12 8.02 10.98 8.64 10.86 9.32C10.78 10 10.7 10.68 10.62 11.36C10.58 12.04 10.56 12.58 10.56 12.98C10.56 14.02 10.6 14.82 10.68 15.38C10.76 15.94 10.78 16.22 10.74 16.22C12.02 16.18 13.16 16.06 14.16 15.86C15.2 15.66 16.12 15.56 16.92 15.56C17.28 15.56 17.7 15.58 18.18 15.62C18.66 15.62 19.16 15.62 19.68 15.62C20.2 15.62 20.66 15.64 21.06 15.68C21.5 15.68 21.84 15.68 22.08 15.68C22.48 15.68 22.76 15.86 22.92 16.22C23.12 16.58 23.22 17.02 23.22 17.54C23.22 18.42 22.9 19 22.26 19.28C21.62 19.52 20.48 19.64 18.84 19.64C16.92 19.64 15.72 19.7 15.24 19.82C15.04 19.82 14.8 19.82 14.52 19.82C14.28 19.78 14.02 19.76 13.74 19.76C13.3 19.76 12.82 19.78 12.3 19.82C11.82 19.82 11.3 19.84 10.74 19.88C10.62 20.04 10.52 20.42 10.44 21.02C10.36 21.58 10.3 22.18 10.26 22.82C10.22 23.46 10.2 24.04 10.2 24.56C10.2 25.04 10.2 25.28 10.2 25.28V26.54C10.2 27.94 10.14 29.74 10.02 31.94C10.3 32.02 10.86 32.1 11.7 32.18C12.58 32.26 13.5 32.34 14.46 32.42C15.42 32.46 16.32 32.52 17.16 32.6C18.04 32.64 18.6 32.68 18.84 32.72C18.88 32.72 19.18 32.7 19.74 32.66C20.3 32.62 21.1 32.56 22.14 32.48C23.62 32.36 24.78 32.3 25.62 32.3H26.34Z" fill="#E075CF"/>
<path d="M55.5098 29C56.0698 29.36 56.3498 29.8 56.3498 30.32C56.3498 30.88 56.0698 31.42 55.5098 31.94C54.9498 32.46 54.4098 32.72 53.8898 32.72C52.6498 32.28 51.5698 31.46 50.6498 30.26C49.7698 29.06 49.1698 27.76 48.8498 26.36C48.5698 26.96 48.2298 27.72 47.8298 28.64C47.4698 29.52 46.9898 30.36 46.3898 31.16C45.7898 31.96 45.0498 32.66 44.1698 33.26C43.2898 33.82 42.1898 34.1 40.8698 34.1C40.1898 34.1 39.2898 33.98 38.1698 33.74C36.9298 32.86 35.9498 32.16 35.2298 31.64C34.5498 31.08 34.0298 30.56 33.6698 30.08C33.3098 29.6 33.0898 29.06 33.0098 28.46C32.9298 27.86 32.8898 27.06 32.8898 26.06C32.8898 25.22 33.0098 24.3 33.2498 23.3C33.5298 22.26 33.9098 21.22 34.3898 20.18C34.8698 19.14 35.4698 18.12 36.1898 17.12C36.9098 16.12 37.7498 15.2 38.7098 14.36C40.4698 13.76 41.8498 13.32 42.8498 13.04C43.8498 12.76 44.5298 12.62 44.8898 12.62C45.6898 11.7 46.5298 11.24 47.4098 11.24C47.8898 11.24 48.3098 11.52 48.6698 12.08C49.0298 12.64 49.3498 13.38 49.6298 14.3C49.9498 15.18 50.1898 16.16 50.3498 17.24C50.5498 18.32 50.7098 19.36 50.8298 20.36C50.9498 20.56 51.0498 20.8 51.1298 21.08C51.2098 21.32 51.2898 21.64 51.3698 22.04L51.7298 23.72C51.9698 24.88 52.4298 25.88 53.1098 26.72C53.7898 27.56 54.5898 28.32 55.5098 29ZM47.0498 21.08C46.9698 20.72 46.8298 20.12 46.6298 19.28C46.4298 18.44 46.1698 17.36 45.8498 16.04C45.3698 16.16 44.8498 16.22 44.2898 16.22C43.7298 16.18 43.1298 16.28 42.4898 16.52C41.8498 16.76 41.1498 17.2 40.3898 17.84C39.6698 18.48 38.9298 19.48 38.1698 20.84C37.2098 22.6 36.7298 24.46 36.7298 26.42C36.9698 26.94 37.1898 27.4 37.3898 27.8C37.5898 28.16 37.8298 28.5 38.1098 28.82C38.4298 29.1 38.8098 29.38 39.2498 29.66C39.6898 29.94 40.2498 30.24 40.9298 30.56C41.5298 30.44 42.0298 30.3 42.4298 30.14C42.8698 29.98 43.2498 29.74 43.5698 29.42C43.8898 29.06 44.1898 28.62 44.4698 28.1C44.7498 27.58 45.0898 26.9 45.4898 26.06C46.5298 23.74 47.0498 22.08 47.0498 21.08Z" fill="#94C23E"/>
<path d="M77.5791 28.46C77.4591 29.62 77.0391 30.72 76.3191 31.76L74.1591 34.82C73.7991 35.14 73.2391 35.4 72.4791 35.6C71.7191 35.84 70.9391 36.02 70.1391 36.14C69.3791 36.3 68.6791 36.42 68.0391 36.5C67.4391 36.58 67.1191 36.62 67.0791 36.62C66.6791 36.62 66.1591 36.54 65.5191 36.38C64.9191 36.26 64.3191 36.12 63.7191 35.96C63.1191 35.8 62.5991 35.64 62.1591 35.48C61.7191 35.36 61.4791 35.3 61.4391 35.3H61.3791C60.9391 35.26 60.4591 35.16 59.9391 35C59.4591 34.84 58.9791 34.64 58.4991 34.4C58.0591 34.16 57.6991 33.9 57.4191 33.62C57.0991 33.3 56.9391 32.96 56.9391 32.6C56.9391 32.16 57.1591 31.72 57.5991 31.28C58.0391 30.8 58.4791 30.56 58.9191 30.56C62.9591 32.16 66.1791 32.96 68.5791 32.96C69.4591 32.96 70.1991 32.78 70.7991 32.42C71.4391 32.06 71.9191 31.68 72.2391 31.28L73.4991 29C73.4991 28.48 73.3391 27.96 73.0191 27.44C72.7391 26.92 72.3391 26.46 71.8191 26.06C71.3391 25.62 70.7791 25.24 70.1391 24.92C69.4991 24.6 68.8391 24.38 68.1591 24.26C67.3991 24.14 66.6191 23.92 65.8191 23.6C65.0591 23.28 64.3391 22.9 63.6591 22.46C63.0191 22.02 62.4791 21.54 62.0391 21.02C61.6391 20.46 61.4191 19.86 61.3791 19.22C61.3391 19.22 61.2991 18.46 61.2591 16.94C61.3391 16.34 61.4191 15.86 61.4991 15.5C61.5791 15.14 61.7591 14.82 62.0391 14.54C62.3191 14.22 62.7391 13.88 63.2991 13.52C63.8991 13.16 64.7391 12.64 65.8191 11.96C66.1391 11.92 66.7191 11.88 67.5591 11.84C68.4391 11.76 69.6191 11.64 71.0991 11.48C71.7391 11.48 73.3791 11.96 76.0191 12.92C76.4191 13.28 76.6191 13.82 76.6191 14.54C76.6191 15.78 76.1991 16.4 75.3591 16.4C75.3191 16.4 75.2791 16.4 75.2391 16.4C75.1991 16.36 75.1391 16.34 75.0591 16.34L72.8991 15.62C71.8191 15.3 70.8991 15.14 70.1391 15.14C69.0191 15.14 68.1191 15.2 67.4391 15.32C66.7991 15.44 66.3191 15.6 65.9991 15.8C65.6791 15.96 65.4591 16.14 65.3391 16.34C65.2191 16.54 65.1391 16.72 65.0991 16.88C65.0991 17 65.0791 17.12 65.0391 17.24C65.0391 17.32 65.0391 17.42 65.0391 17.54C65.0391 19.1 65.6791 20.06 66.9591 20.42C73.2791 21.7 76.8191 24.38 77.5791 28.46Z" fill="#FEA914"/>
<path d="M106.532 16.7C106.492 17.5 106.392 18.22 106.232 18.86C106.072 19.46 105.832 20.08 105.512 20.72C105.232 21.36 104.892 22.06 104.492 22.82C104.132 23.54 103.732 24.44 103.292 25.52C103.052 27.08 102.592 28.52 101.912 29.84C101.272 31.16 100.552 32.42 99.7523 33.62C98.9923 34.82 98.2323 35.98 97.4723 37.1C96.7123 38.26 96.1323 39.44 95.7323 40.64C95.0923 41.52 94.5923 42.28 94.2323 42.92C93.8723 43.6 93.5323 44.24 93.2123 44.84C92.8923 45.44 92.5123 46.04 92.0723 46.64C91.6323 47.28 90.9923 48.02 90.1523 48.86C89.9123 48.94 89.6723 48.98 89.4323 48.98C88.9123 48.98 88.4123 48.82 87.9323 48.5C87.4923 48.22 87.2723 47.86 87.2723 47.42C87.2723 47.18 87.3523 46.96 87.5123 46.76L91.4123 40.94C91.5323 40.58 91.7723 40.06 92.1323 39.38C92.4923 38.7 92.8923 37.96 93.3323 37.16C93.7723 36.36 94.1923 35.58 94.5923 34.82C94.9923 34.02 95.2523 33.38 95.3723 32.9C95.0923 32.74 94.7523 32.48 94.3523 32.12C93.9523 31.72 93.5323 31.32 93.0923 30.92C92.6523 30.48 92.2123 30.08 91.7723 29.72C91.3723 29.32 90.9923 29.04 90.6323 28.88C89.9123 27.88 89.3323 27.2 88.8923 26.84C88.4923 26.44 88.0723 26.04 87.6323 25.64C87.1923 25.24 86.6723 24.66 86.0723 23.9C85.5123 23.1 84.6923 21.8 83.6123 20C83.5723 19.92 83.5523 19.8 83.5523 19.64C83.5523 19.12 83.7323 18.62 84.0923 18.14C84.4923 17.66 84.9723 17.42 85.5323 17.42C85.9323 17.42 86.4323 17.72 87.0323 18.32C87.6323 18.92 88.2123 19.6 88.7723 20.36C89.3723 21.08 89.9123 21.78 90.3923 22.46C90.8723 23.1 91.1723 23.5 91.2923 23.66C91.5323 23.9 91.8923 24.3 92.3723 24.86C92.8923 25.42 93.4523 26 94.0523 26.6C94.6523 27.2 95.2323 27.76 95.7923 28.28C96.3923 28.8 96.8723 29.14 97.2323 29.3C97.5523 28.9 97.9723 28.02 98.4923 26.66C99.0523 25.26 99.6323 23.82 100.232 22.34C100.672 21.22 101.152 20.1 101.672 18.98C102.232 17.82 102.552 16.78 102.632 15.86C103.312 15.42 103.972 15.2 104.612 15.2C105.732 15.2 106.372 15.7 106.532 16.7Z" fill="#0EADCF"/>
<path d="M111.312 35L118.152 8.72H122.508L129.312 35H126.036L124.308 28.016H116.352L114.624 35H111.312ZM117 25.28H123.624L121.608 17.18C121.224 15.644 120.924 14.36 120.708 13.328C120.492 12.296 120.36 11.624 120.312 11.312C120.264 11.624 120.132 12.296 119.916 13.328C119.7 14.36 119.4 15.632 119.016 17.144L117 25.28ZM134.41 35V15.2H137.65V18.98H138.334L137.65 19.736C137.65 18.176 138.118 16.976 139.054 16.136C139.99 15.272 141.286 14.84 142.942 14.84C144.934 14.84 146.518 15.452 147.694 16.676C148.87 17.9 149.458 19.568 149.458 21.68V35H146.218V22.04C146.218 20.624 145.834 19.544 145.066 18.8C144.322 18.032 143.302 17.648 142.006 17.648C140.662 17.648 139.594 18.056 138.802 18.872C138.034 19.688 137.65 20.864 137.65 22.4V35H134.41ZM161.756 35.36C159.668 35.36 158.024 34.832 156.824 33.776C155.624 32.696 155.024 31.244 155.024 29.42C155.024 27.572 155.624 26.12 156.824 25.064C158.024 24.008 159.644 23.48 161.684 23.48H167.804V21.5C167.804 20.276 167.432 19.34 166.688 18.692C165.968 18.02 164.936 17.684 163.592 17.684C162.416 17.684 161.432 17.936 160.64 18.44C159.848 18.92 159.392 19.58 159.272 20.42H156.032C156.248 18.716 157.052 17.36 158.444 16.352C159.836 15.344 161.576 14.84 163.664 14.84C165.944 14.84 167.744 15.428 169.064 16.604C170.384 17.78 171.044 19.376 171.044 21.392V35H167.876V31.22H167.336L167.876 30.68C167.876 32.12 167.312 33.26 166.184 34.1C165.08 34.94 163.604 35.36 161.756 35.36ZM162.548 32.804C164.084 32.804 165.344 32.42 166.328 31.652C167.312 30.884 167.804 29.9 167.804 28.7V25.892H161.756C160.676 25.892 159.824 26.192 159.2 26.792C158.576 27.392 158.264 28.208 158.264 29.24C158.264 30.344 158.636 31.22 159.38 31.868C160.148 32.492 161.204 32.804 162.548 32.804ZM187.77 35C186.618 35 185.61 34.772 184.746 34.316C183.882 33.86 183.21 33.212 182.73 32.372C182.25 31.532 182.01 30.548 182.01 29.42V11.672H175.35V8.72H185.25V29.42C185.25 30.236 185.478 30.884 185.934 31.364C186.39 31.82 187.002 32.048 187.77 32.048H194.07V35H187.77ZM202.263 41.48L205.179 33.776L197.835 15.2H201.435L206.043 27.44C206.211 27.848 206.367 28.34 206.511 28.916C206.655 29.468 206.775 29.936 206.871 30.32C206.967 29.936 207.087 29.468 207.231 28.916C207.375 28.34 207.519 27.848 207.663 27.44L211.983 15.2H215.475L205.719 41.48H202.263ZM227.629 35.288C226.285 35.288 225.109 35.084 224.101 34.676C223.117 34.244 222.325 33.644 221.725 32.876C221.149 32.108 220.801 31.196 220.681 30.14H223.921C224.065 30.836 224.449 31.388 225.073 31.796C225.721 32.204 226.573 32.408 227.629 32.408H229.141C230.413 32.408 231.361 32.156 231.985 31.652C232.609 31.124 232.921 30.428 232.921 29.564C232.921 28.724 232.633 28.064 232.057 27.584C231.505 27.08 230.677 26.744 229.573 26.576L226.909 26.144C224.965 25.808 223.513 25.208 222.553 24.344C221.617 23.456 221.149 22.172 221.149 20.492C221.149 18.716 221.713 17.348 222.841 16.388C223.969 15.404 225.661 14.912 227.917 14.912H229.285C231.181 14.912 232.705 15.356 233.857 16.244C235.009 17.132 235.705 18.332 235.945 19.844H232.705C232.561 19.22 232.201 18.728 231.625 18.368C231.049 17.984 230.269 17.792 229.285 17.792H227.917C226.693 17.792 225.793 18.02 225.217 18.476C224.665 18.932 224.389 19.616 224.389 20.528C224.389 21.344 224.629 21.944 225.109 22.328C225.589 22.712 226.345 22.988 227.377 23.156L230.041 23.588C232.177 23.924 233.725 24.548 234.685 25.46C235.669 26.372 236.161 27.692 236.161 29.42C236.161 31.244 235.573 32.684 234.397 33.74C233.245 34.772 231.493 35.288 229.141 35.288H227.629ZM242.087 35V32.048H249.107V18.152H242.987V15.2H252.347V32.048H259.007V35H242.087ZM250.367 11.636C249.575 11.636 248.951 11.432 248.495 11.024C248.039 10.616 247.811 10.064 247.811 9.368C247.811 8.648 248.039 8.084 248.495 7.676C248.951 7.244 249.575 7.028 250.367 7.028C251.159 7.028 251.783 7.244 252.239 7.676C252.695 8.084 252.923 8.648 252.923 9.368C252.923 10.064 252.695 10.616 252.239 11.024C251.783 11.432 251.159 11.636 250.367 11.636ZM270.801 35.288C269.457 35.288 268.281 35.084 267.273 34.676C266.289 34.244 265.497 33.644 264.897 32.876C264.321 32.108 263.973 31.196 263.853 30.14H267.093C267.237 30.836 267.621 31.388 268.245 31.796C268.893 32.204 269.745 32.408 270.801 32.408H272.313C273.585 32.408 274.533 32.156 275.157 31.652C275.781 31.124 276.093 30.428 276.093 29.564C276.093 28.724 275.805 28.064 275.229 27.584C274.677 27.08 273.849 26.744 272.745 26.576L270.081 26.144C268.137 25.808 266.685 25.208 265.725 24.344C264.789 23.456 264.321 22.172 264.321 20.492C264.321 18.716 264.885 17.348 266.013 16.388C267.141 15.404 268.833 14.912 271.089 14.912H272.457C274.353 14.912 275.877 15.356 277.029 16.244C278.181 17.132 278.877 18.332 279.117 19.844H275.877C275.733 19.22 275.373 18.728 274.797 18.368C274.221 17.984 273.441 17.792 272.457 17.792H271.089C269.865 17.792 268.965 18.02 268.389 18.476C267.837 18.932 267.561 19.616 267.561 20.528C267.561 21.344 267.801 21.944 268.281 22.328C268.761 22.712 269.517 22.988 270.549 23.156L273.213 23.588C275.349 23.924 276.897 24.548 277.857 25.46C278.841 26.372 279.333 27.692 279.333 29.42C279.333 31.244 278.745 32.684 277.569 33.74C276.417 34.772 274.665 35.288 272.313 35.288H270.801ZM292.999 35.36C292.087 35.36 291.355 35.096 290.803 34.568C290.275 34.04 290.011 33.332 290.011 32.444C290.011 31.508 290.275 30.764 290.803 30.212C291.355 29.66 292.087 29.384 292.999 29.384C293.911 29.384 294.631 29.66 295.159 30.212C295.711 30.764 295.987 31.508 295.987 32.444C295.987 33.332 295.711 34.04 295.159 34.568C294.631 35.096 293.911 35.36 292.999 35.36ZM312.857 35.36C310.769 35.36 309.125 34.832 307.925 33.776C306.725 32.696 306.125 31.244 306.125 29.42C306.125 27.572 306.725 26.12 307.925 25.064C309.125 24.008 310.745 23.48 312.785 23.48H318.905V21.5C318.905 20.276 318.533 19.34 317.789 18.692C317.069 18.02 316.037 17.684 314.693 17.684C313.517 17.684 312.533 17.936 311.741 18.44C310.949 18.92 310.493 19.58 310.373 20.42H307.133C307.349 18.716 308.153 17.36 309.545 16.352C310.937 15.344 312.677 14.84 314.765 14.84C317.045 14.84 318.845 15.428 320.165 16.604C321.485 17.78 322.145 19.376 322.145 21.392V35H318.977V31.22H318.437L318.977 30.68C318.977 32.12 318.413 33.26 317.285 34.1C316.181 34.94 314.705 35.36 312.857 35.36ZM313.649 32.804C315.185 32.804 316.445 32.42 317.429 31.652C318.413 30.884 318.905 29.9 318.905 28.7V25.892H312.857C311.777 25.892 310.925 26.192 310.301 26.792C309.677 27.392 309.365 28.208 309.365 29.24C309.365 30.344 309.737 31.22 310.481 31.868C311.249 32.492 312.305 32.804 313.649 32.804ZM328.431 35V32.048H335.451V18.152H329.331V15.2H338.691V32.048H345.351V35H328.431ZM336.711 11.636C335.919 11.636 335.295 11.432 334.839 11.024C334.383 10.616 334.155 10.064 334.155 9.368C334.155 8.648 334.383 8.084 334.839 7.676C335.295 7.244 335.919 7.028 336.711 7.028C337.503 7.028 338.127 7.244 338.583 7.676C339.039 8.084 339.267 8.648 339.267 9.368C339.267 10.064 339.039 10.616 338.583 11.024C338.127 11.432 337.503 11.636 336.711 11.636Z" fill="black"/>
</svg>
