<svg width="285" height="255" viewBox="0 0 285 255" fill="none" xmlns="http://www.w3.org/2000/svg">
<path d="M74.6693 159.396L74.7653 159.375M234.669 127.5C234.669 68.8181 186.915 21.25 128.003 21.25C69.0906 21.25 21.3359 68.8181 21.3359 127.5C21.3359 186.182 69.0906 233.75 128.003 233.75C136.984 233.75 149.336 234.983 149.336 223.125C149.336 216.654 145.955 211.661 142.605 206.699C137.699 199.442 132.824 192.259 138.669 180.625C145.784 166.462 157.635 166.462 175.811 166.462C184.888 166.462 195.555 166.462 208.003 164.688C230.413 161.5 234.669 147.773 234.669 127.5Z" stroke="#25B600" stroke-width="10" stroke-linecap="round" stroke-linejoin="round"/>
<path d="M101.336 106.25C110.172 106.25 117.336 99.1145 117.336 90.3125C117.336 81.5105 110.172 74.375 101.336 74.375C92.4994 74.375 85.3359 81.5105 85.3359 90.3125C85.3359 99.1145 92.4994 106.25 101.336 106.25Z" stroke="#25B600" stroke-width="10" stroke-linecap="round" stroke-linejoin="round"/>
<path d="M176.004 116.875C184.84 116.875 192.004 109.74 192.004 100.938C192.004 92.1355 184.84 85 176.004 85C167.167 85 160.004 92.1355 160.004 100.938C160.004 109.74 167.167 116.875 176.004 116.875Z" stroke="#25B600" stroke-width="10" stroke-linecap="round" stroke-linejoin="round"/>
<path d="M274.782 149.406C274.782 148.503 274.423 147.636 273.785 146.998C273.146 146.359 272.279 146 271.376 146C252.608 146 233.349 167.166 222.654 181.182C218.834 180.012 214.793 179.755 210.856 180.43C206.918 181.105 203.194 182.694 199.982 185.07C196.77 187.445 194.16 190.541 192.361 194.108C190.563 197.675 189.626 201.614 189.626 205.609C189.626 218.757 181.306 224.655 180.91 224.927C180.306 225.335 179.849 225.926 179.605 226.614C179.362 227.301 179.346 228.048 179.559 228.745C179.772 229.443 180.203 230.053 180.789 230.487C181.375 230.921 182.084 231.156 182.813 231.156H215.173C219.168 231.156 223.107 230.219 226.674 228.421C230.241 226.622 233.337 224.012 235.713 220.8C238.088 217.588 239.677 213.864 240.352 209.927C241.027 205.989 240.77 201.948 239.6 198.128C253.621 187.433 274.782 168.175 274.782 149.406ZM215.173 224.344H190.746C193.62 220.261 196.438 214.091 196.438 205.609C196.438 201.904 197.537 198.282 199.596 195.201C201.654 192.12 204.58 189.719 208.003 188.301C211.427 186.883 215.194 186.512 218.828 187.235C222.462 187.958 225.8 189.742 228.42 192.362C231.04 194.982 232.824 198.32 233.547 201.954C234.27 205.589 233.899 209.355 232.481 212.779C231.063 216.202 228.662 219.128 225.581 221.186C222.5 223.245 218.878 224.344 215.173 224.344ZM228.977 184.129C230.436 182.238 231.868 180.457 233.273 178.785C236.712 181.108 239.674 184.07 241.997 187.509C240.322 188.912 238.541 190.344 236.653 191.806C234.669 188.73 232.052 186.113 228.977 184.129ZM247.158 182.988C244.586 179.359 241.419 176.192 237.79 173.62C251.322 158.918 261.528 154.46 267.552 153.221C266.339 159.25 261.86 169.456 247.158 182.988Z" fill="#25B600"/>
</svg>
