<svg width="256" height="256" viewBox="0 0 256 256" fill="none" xmlns="http://www.w3.org/2000/svg">
<path d="M127.832 226.664C182.415 226.664 226.664 182.415 226.664 127.832C226.664 73.2486 182.415 29 127.832 29C73.2486 29 29 73.2486 29 127.832C29 182.415 73.2486 226.664 127.832 226.664Z" stroke="#FECA13" stroke-width="10" stroke-linecap="round" stroke-linejoin="round"/>
<path d="M88.3008 157.481C92.9037 163.618 98.8724 168.599 105.734 172.03C112.596 175.461 120.162 177.247 127.834 177.247C135.505 177.247 143.071 175.461 149.933 172.03C156.795 168.599 162.763 163.618 167.366 157.481M88.3897 98.1816H88.3008M167.366 98.1816H167.277" stroke="#FECA13" stroke-width="12" stroke-linecap="round" stroke-linejoin="round"/>
</svg>
