<svg width="313" height="256" viewBox="0 0 313 256" fill="none" xmlns="http://www.w3.org/2000/svg">
<path d="M228.557 191.938H279.44C284.004 191.938 287.633 188.183 287.143 183.857C283.974 155.984 265.061 156.445 265.061 144C265.061 131.555 284.216 132.246 287.14 104.143C287.601 99.8145 284.004 96.0625 279.44 96.0625H228.557C223.994 96.0625 220.406 99.8145 220.857 104.143C223.782 132.246 242.936 131.324 242.936 144C242.936 156.676 224.024 155.984 220.857 183.857C220.364 188.183 223.994 191.938 228.557 191.938Z" stroke="#C502C9" stroke-width="4" stroke-linecap="round" stroke-linejoin="round"/>
<path d="M274.12 184.562H233.979C230.384 184.562 229.37 180.414 231.891 177.842C237.994 171.656 250.313 167.227 250.313 160.133V136.625C250.313 132.05 241.555 128.559 236.137 121.138C235.242 119.914 235.332 118.188 237.605 118.188H270.5C272.438 118.188 272.857 119.9 271.975 121.126C266.635 128.559 257.688 132.027 257.688 136.625V160.133C257.688 167.169 270.527 170.965 276.217 177.849C278.511 180.624 277.709 184.562 274.12 184.562Z" fill="#C502C9"/>
<path fill-rule="evenodd" clip-rule="evenodd" d="M117.4 105.527L152.419 140.546L144.787 148.187L106.6 110V56H117.4V105.527ZM112 200C62.293 200 22 159.707 22 110C22 60.293 62.293 20 112 20C161.707 20 202 60.293 202 110C202 159.707 161.707 200 112 200ZM112 189.2C133.005 189.2 153.15 180.856 168.003 166.003C182.856 151.15 191.2 131.005 191.2 110C191.2 88.9949 182.856 68.85 168.003 53.9971C153.15 39.1443 133.005 30.8 112 30.8C90.9949 30.8 70.85 39.1443 55.9971 53.9971C41.1443 68.85 32.8 88.9949 32.8 110C32.8 131.005 41.1443 151.15 55.9971 166.003C70.85 180.856 90.9949 189.2 112 189.2Z" fill="#C502C9"/>
</svg>
