<svg width="256" height="256" viewBox="0 0 256 256" fill="none" xmlns="http://www.w3.org/2000/svg">
<path d="M240.212 90.3457C238.146 95.1454 237.034 100.389 236.95 105.717C236.867 111.045 237.814 116.329 239.728 121.207L157.128 233.032C155.265 235.555 152.772 237.398 149.969 238.326C147.166 239.254 144.18 239.224 141.392 238.24L40.0103 202.478C33.6963 200.587 27.8916 196.993 23.1033 192.008C19.9531 187.529 17.7933 182.278 16.8005 176.685C15.7077 169.394 15.734 161.947 16.8782 154.666C20.6778 134.021 34.2631 140.092 34.2631 140.092" stroke="#2589FE" stroke-width="10" stroke-linecap="round" stroke-linejoin="round"/>
<path d="M34.2712 140.101L137.655 179.278C140.421 180.321 143.402 180.414 146.216 179.544C149.029 178.675 151.547 176.882 153.444 174.397L247.574 50.9242C248.239 50.0513 248.692 49.0002 248.888 47.8732C249.084 46.7462 249.016 45.5816 248.691 44.4927C248.367 43.4037 247.796 42.4274 247.035 41.6587C246.274 40.89 245.348 40.3551 244.348 40.1059L132.595 12.4376C129.679 11.7123 126.642 11.8912 123.811 12.9551C120.979 14.0191 118.46 15.9278 116.524 18.476L21.9883 142.773" stroke="#2589FE" stroke-width="10" stroke-linecap="round" stroke-linejoin="round"/>
<path d="M107.031 65.9946L182.455 90.1081L201.394 66.1887L123.663 45.3555L107.031 65.9946Z" stroke="#2589FE" stroke-width="5.33333" stroke-linejoin="round"/>
</svg>
